<svg xmlns="http://www.w3.org/2000/svg" viewBox="0 0 100 100" width="100" height="100">
  <defs>
    <linearGradient id="calGrad" x1="0%" y1="0%" x2="100%" y2="100%">
      <stop offset="0%" style="stop-color:#4CAF50;stop-opacity:1" />
      <stop offset="100%" style="stop-color:#388E3C;stop-opacity:1" />
    </linearGradient>
  </defs>
  <!-- Calendar -->
  <rect x="20" y="25" width="60" height="60" rx="5" fill="url(#calGrad)"/>
  <rect x="20" y="25" width="60" height="15" rx="5" fill="#2E7D32"/>
  <!-- Binding rings -->
  <circle cx="35" cy="23" r="3" fill="#1B5E20"/>
  <circle cx="50" cy="23" r="3" fill="#1B5E20"/>
  <circle cx="65" cy="23" r="3" fill="#1B5E20"/>
  <!-- Date grid -->
  <rect x="27" y="48" width="8" height="8" rx="1" fill="white" opacity="0.7"/>
  <rect x="39" y="48" width="8" height="8" rx="1" fill="white" opacity="0.7"/>
  <rect x="51" y="48" width="8" height="8" rx="1" fill="white" opacity="0.7"/>
  <rect x="63" y="48" width="8" height="8" rx="1" fill="white" opacity="0.7"/>
  <rect x="27" y="60" width="8" height="8" rx="1" fill="white" opacity="0.7"/>
  <rect x="39" y="60" width="8" height="8" rx="1" fill="white" opacity="0.7"/>
  <rect x="51" y="60" width="8" height="8" rx="1" fill="#FFD93D"/>
  <rect x="63" y="60" width="8" height="8" rx="1" fill="white" opacity="0.7"/>
  <rect x="27" y="72" width="8" height="8" rx="1" fill="white" opacity="0.7"/>
  <rect x="39" y="72" width="8" height="8" rx="1" fill="white" opacity="0.7"/>
</svg>
